<?xml version="1.0" encoding="UTF-8" standalone="no"?><!DOCTYPE svg PUBLIC "-//W3C//DTD SVG 1.1//EN" "http://www.w3.org/Graphics/SVG/1.1/DTD/svg11.dtd"><svg width="100%" height="100%" viewBox="0 0 997 306" version="1.1" xmlns="http://www.w3.org/2000/svg" xmlns:xlink="http://www.w3.org/1999/xlink" xml:space="preserve" xmlns:serif="http://www.serif.com/" style="fill-rule:evenodd;clip-rule:evenodd;stroke-linejoin:round;stroke-miterlimit:2;"><rect x="0" y="41.674" width="46.49" height="223.939" style="fill:#595a5c;"/><path d="M135.67,167.013l-0,59.708l54.368,-0c9.709,-0 17.27,-1.317 22.677,-3.951c9.811,-4.861 14.718,-14.179 14.718,-27.954c-0,-11.646 -4.757,-19.648 -14.266,-24.005c-5.308,-2.43 -12.767,-3.695 -22.379,-3.798l-55.118,-0Zm-0,-86.446l-0,49.377l54.428,-0c9.722,-0 17.616,-1.847 23.681,-5.545c6.063,-3.697 9.097,-10.256 9.097,-19.675c-0,-10.431 -4.01,-17.32 -12.028,-20.662c-6.919,-2.328 -15.739,-3.495 -26.464,-3.495l-48.714,-0Zm121.593,-15.04c6.851,9.521 10.279,20.916 10.279,34.183c-0,13.674 -3.459,24.664 -10.372,32.968c-3.864,4.66 -9.556,8.914 -17.079,12.762c11.428,4.154 20.052,10.737 25.868,19.75c5.816,9.016 8.723,19.955 8.723,32.816c-0,13.27 -3.323,25.171 -9.97,35.703c-4.23,6.989 -9.517,12.863 -15.86,17.624c-7.149,5.468 -15.584,9.216 -25.302,11.242c-9.719,2.027 -20.266,3.038 -31.643,3.038l-100.903,-0l-0,-223.938l108.221,-0c27.307,0.406 46.653,8.356 58.038,23.852" style="fill:#595a5c;fill-rule:nonzero;"/><rect x="311.143" y="41.674" width="46.49" height="223.939" style="fill:#595a5c;"/><rect x="469.075" y="42.628" width="12.889" height="58.62" style="fill:#595a5c;"/><path d="M492.063,58.801l11.083,-0l0,5.912l0.247,-0c1.423,-2.299 3.296,-4.051 5.624,-5.255c2.326,-1.203 4.775,-1.806 7.347,-1.806c3.011,-0 5.529,0.41 7.554,1.231c2.025,0.821 3.624,1.985 4.804,3.489c1.175,1.507 1.996,3.313 2.461,5.419c0.466,2.108 0.698,4.557 0.698,7.348l0,26.108l-11.657,-0l0,-23.973c0,-3.558 -0.576,-6.184 -1.724,-7.882c-1.15,-1.696 -3.067,-2.545 -5.748,-2.545c-3.175,-0 -5.474,0.944 -6.896,2.833c-1.424,1.888 -2.136,4.995 -2.136,9.319l0,22.248l-11.657,-0l0,-42.446Z" style="fill:#595a5c;fill-rule:nonzero;"/><path d="M549.778,87.454c0.054,2.409 0.931,4.202 2.626,5.378c1.698,1.178 3.804,1.765 6.322,1.765c2.026,-0 3.804,-0.437 5.337,-1.314c1.532,-0.875 2.298,-2.243 2.298,-4.105c-0,-1.642 -0.983,-2.886 -2.954,-3.736c-1.971,-0.847 -5.393,-1.791 -10.263,-2.832c-1.969,-0.437 -3.708,-0.915 -5.214,-1.436c-1.505,-0.52 -2.887,-1.204 -4.146,-2.053c-1.259,-0.848 -2.257,-1.915 -2.996,-3.202c-0.739,-1.285 -1.109,-2.832 -1.109,-4.638c-0,-2.572 0.505,-4.763 1.52,-6.569c1.013,-1.805 2.393,-3.215 4.147,-4.227c1.749,-1.013 3.705,-1.737 5.868,-2.177c2.163,-0.437 4.475,-0.657 6.938,-0.657c2.464,-0 4.748,0.234 6.857,0.699c2.106,0.465 4.021,1.218 5.745,2.258c1.725,1.04 3.122,2.435 4.188,4.187c1.067,1.752 1.71,3.886 1.93,6.403l-11.085,-0c-0.163,-2.135 -0.943,-3.625 -2.34,-4.474c-1.395,-0.849 -3.27,-1.272 -5.623,-1.272c-1.806,-0 -3.34,0.274 -4.597,0.82c-1.261,0.548 -1.889,1.589 -1.889,3.12c-0,1.588 0.82,2.737 2.463,3.448c1.641,0.712 4.159,1.424 7.554,2.135c1.53,0.328 2.599,0.574 3.201,0.739c1.97,0.439 3.722,0.944 5.255,1.519c1.532,0.574 2.927,1.301 4.188,2.176c1.257,0.875 2.242,1.998 2.954,3.365c0.712,1.37 1.067,2.985 1.067,4.845c-0,2.682 -0.533,4.98 -1.599,6.896c-1.069,1.917 -2.518,3.448 -4.354,4.597c-1.833,1.15 -3.885,1.985 -6.156,2.505c-2.272,0.52 -4.694,0.779 -7.266,0.779c-2.627,-0 -5.09,-0.259 -7.389,-0.779c-2.298,-0.52 -4.38,-1.368 -6.24,-2.545c-1.861,-1.177 -3.353,-2.736 -4.475,-4.68c-1.121,-1.943 -1.737,-4.255 -1.847,-6.938l11.084,-0Z" style="fill:#595a5c;fill-rule:nonzero;"/><path d="M599.614,58.801l8.537,-0l0,7.8l-8.537,-0l0,21.018c0,1.97 0.328,3.283 0.985,3.941c0.656,0.656 1.969,0.984 3.94,0.984c1.313,-0 2.518,-0.108 3.612,-0.328l0,9.114c-1.641,0.272 -3.912,0.41 -6.812,0.41c-1.971,-0 -3.738,-0.138 -5.297,-0.41c-1.56,-0.274 -2.955,-0.781 -4.186,-1.519c-1.232,-0.739 -2.19,-1.779 -2.875,-3.12c-0.685,-1.341 -1.025,-3.023 -1.025,-5.05l0,-25.04l-7.061,-0l0,-7.8l7.061,-0l0,-12.725l11.658,-0l0,12.725Z" style="fill:#595a5c;fill-rule:nonzero;"/><path d="M614.061,58.801l11.658,0l0,42.446l-11.658,0l0,-42.446Zm11.659,-6.568l-11.658,0l0,-9.605l11.658,0l0,9.605Z" style="fill:#595a5c;fill-rule:nonzero;"/><path d="M649.694,58.801l8.537,-0l0,7.8l-8.537,-0l0,21.018c0,1.97 0.328,3.283 0.985,3.941c0.656,0.656 1.969,0.984 3.94,0.984c1.313,-0 2.518,-0.108 3.612,-0.328l0,9.114c-1.641,0.272 -3.912,0.41 -6.812,0.41c-1.971,-0 -3.738,-0.138 -5.297,-0.41c-1.56,-0.274 -2.954,-0.781 -4.186,-1.519c-1.232,-0.739 -2.19,-1.779 -2.875,-3.12c-0.685,-1.341 -1.025,-3.023 -1.025,-5.05l0,-25.04l-7.061,-0l0,-7.8l7.061,-0l0,-12.725l11.658,-0l0,12.725Z" style="fill:#595a5c;fill-rule:nonzero;"/><path d="M703.631,101.247l-11.082,0l0,-5.912l-0.246,0c-1.424,2.3 -3.299,4.052 -5.625,5.255c-2.326,1.203 -4.775,1.806 -7.347,1.806c-3.011,0 -5.531,-0.41 -7.554,-1.231c-2.025,-0.821 -3.626,-1.997 -4.804,-3.53c-1.177,-1.532 -1.998,-3.338 -2.461,-5.419c-0.466,-2.079 -0.7,-4.516 -0.7,-7.307l0,-26.108l11.659,0l0,23.973c0,3.559 0.588,6.186 1.766,7.882c1.175,1.697 3.079,2.546 5.706,2.546c3.173,0 5.472,-0.945 6.896,-2.834c1.424,-1.888 2.136,-4.994 2.136,-9.317l0,-22.25l11.656,0l0,42.446Z" style="fill:#595a5c;fill-rule:nonzero;"/><path d="M727.278,58.801l8.537,-0l-0,7.8l-8.538,-0l0,21.018c0,1.97 0.328,3.283 0.986,3.941c0.655,0.656 1.968,0.984 3.939,0.984c1.314,-0 2.519,-0.108 3.613,-0.328l-0,9.114c-1.642,0.272 -3.913,0.41 -6.813,0.41c-1.971,-0 -3.738,-0.138 -5.297,-0.41c-1.559,-0.274 -2.953,-0.781 -4.186,-1.519c-1.231,-0.739 -2.189,-1.779 -2.875,-3.12c-0.684,-1.341 -1.024,-3.023 -1.024,-5.05l-0,-25.04l-7.062,-0l0,-7.8l7.062,-0l-0,-12.725l11.658,-0l-0,12.725Z" style="fill:#595a5c;fill-rule:nonzero;"/><path d="M752.275,85.155c0.355,1.588 0.929,3.025 1.725,4.31c0.791,1.287 1.86,2.299 3.2,3.038c1.341,0.739 2.942,1.109 4.804,1.109c1.915,0 3.543,-0.37 4.884,-1.109c1.342,-0.739 2.409,-1.751 3.202,-3.038c0.794,-1.285 1.368,-2.722 1.725,-4.31c0.355,-1.587 0.534,-3.284 0.534,-5.09c0,-1.806 -0.179,-3.516 -0.534,-5.131c-0.357,-1.614 -0.931,-3.065 -1.725,-4.352c-0.793,-1.285 -1.86,-2.299 -3.202,-3.038c-1.341,-0.739 -2.969,-1.108 -4.884,-1.108c-1.862,0 -3.463,0.369 -4.804,1.108c-1.34,0.739 -2.409,1.753 -3.2,3.038c-0.796,1.287 -1.37,2.738 -1.725,4.352c-0.357,1.615 -0.534,3.325 -0.534,5.131c0,1.806 0.177,3.503 0.534,5.09m-6.199,-21.388c3.994,-4.076 9.304,-6.116 15.928,-6.116c6.677,0 12.013,2.04 16.01,6.116c3.994,4.079 5.992,9.511 5.992,16.298c0,6.732 -1.998,12.137 -5.992,16.215c-3.997,4.077 -9.333,6.116 -16.01,6.116c-6.624,0 -11.934,-2.039 -15.928,-6.116c-3.996,-4.078 -5.994,-9.483 -5.994,-16.215c0,-6.787 1.998,-12.219 5.994,-16.298" style="fill:#595a5c;fill-rule:nonzero;"/><path d="M481.965,173.333l13.793,0c2.901,0 5.213,-0.589 6.936,-1.766c1.724,-1.176 2.589,-3.161 2.589,-5.953c-0,-2.9 -0.823,-5.021 -2.464,-6.363c-1.641,-1.341 -3.915,-2.011 -6.815,-2.011l-14.039,0l-0,16.093Zm-0,-24.877l13.054,0c2.408,0 4.324,-0.576 5.748,-1.725c1.422,-1.149 2.136,-2.9 2.136,-5.254c-0,-2.572 -0.81,-4.337 -2.424,-5.296c-1.615,-0.957 -3.764,-1.436 -6.445,-1.436l-12.069,0l-0,13.711Zm-12.889,-23.727l27.585,0c5.966,0 10.576,1.122 13.833,3.365c3.257,2.246 4.885,5.967 4.885,11.166c-0,5.583 -2.655,9.661 -7.963,12.233c3.504,0.986 6.172,2.778 8.005,5.378c1.833,2.601 2.752,5.762 2.752,9.482c-0,2.846 -0.564,5.352 -1.683,7.512c-1.123,2.163 -2.656,3.942 -4.597,5.337c-1.946,1.397 -4.147,2.436 -6.61,3.119c-2.464,0.687 -5.064,1.027 -7.8,1.027l-28.407,0l-0,-58.619Z" style="fill:#595a5c;fill-rule:nonzero;"/><path d="M524.639,140.902l11.084,-0l-0,7.882l0.165,-0c1.04,-2.627 2.846,-4.789 5.418,-6.486c2.572,-1.696 5.282,-2.545 8.128,-2.545c0.875,-0 1.724,0.137 2.545,0.41l-0,10.838c-0.493,-0.11 -1.136,-0.206 -1.929,-0.287c-0.794,-0.083 -1.547,-0.123 -2.257,-0.123c-3.996,-0 -6.911,1.245 -8.744,3.735c-1.835,2.49 -2.752,5.787 -2.752,9.894l-0,19.128l-11.658,-0l-0,-42.446Z" style="fill:#595a5c;fill-rule:nonzero;"/><path d="M581.613,162.577c-0.658,0.547 -1.52,0.958 -2.587,1.232c-1.067,0.273 -2.503,0.547 -4.309,0.82c-1.15,0.165 -2.082,0.303 -2.791,0.412c-2.191,0.438 -3.888,1.108 -5.093,2.01c-1.204,0.904 -1.806,2.313 -1.806,4.228c0,2.027 0.643,3.437 1.93,4.23c1.286,0.793 3.025,1.19 5.213,1.19c2.136,-0 3.86,-0.355 5.173,-1.067c1.314,-0.712 2.27,-1.601 2.873,-2.668c0.602,-1.069 0.986,-2.107 1.151,-3.121c0.163,-1.013 0.246,-1.984 0.246,-2.915l0,-4.351Zm-26.929,-8.621c0.163,-2.626 0.821,-4.856 1.969,-6.691c1.151,-1.833 2.668,-3.31 4.558,-4.434c1.887,-1.121 3.967,-1.914 6.238,-2.38c2.272,-0.464 4.667,-0.698 7.184,-0.698c2.353,-0 4.61,0.165 6.773,0.493c2.163,0.329 4.132,0.931 5.913,1.806c1.777,0.877 3.213,2.122 4.309,3.736c1.094,1.615 1.643,3.626 1.643,6.034l0,22.086c0,2.133 0.124,4.035 0.37,5.706c0.246,1.67 0.616,2.914 1.109,3.735l-11.824,-0c-0.493,-1.533 -0.768,-2.9 -0.82,-4.105c-1.754,1.806 -3.873,3.134 -6.364,3.981c-2.491,0.848 -5.132,1.274 -7.923,1.274c-4.27,-0 -7.746,-1.081 -10.427,-3.244c-2.683,-2.161 -4.023,-5.322 -4.023,-9.483c0,-2.299 0.397,-4.241 1.192,-5.829c0.792,-1.587 1.858,-2.844 3.201,-3.777c1.34,-0.929 2.833,-1.641 4.474,-2.134c1.643,-0.493 3.503,-0.875 5.583,-1.148c1.094,-0.165 2.353,-0.33 3.777,-0.493c3.503,-0.439 6.048,-0.958 7.635,-1.562c1.587,-0.601 2.382,-1.776 2.382,-3.529c0,-2.299 -0.658,-3.83 -1.971,-4.598c-1.313,-0.766 -3.175,-1.149 -5.583,-1.149c-2.298,-0 -4.104,0.506 -5.418,1.519c-1.315,1.014 -2.081,2.641 -2.298,4.884l-11.659,-0Z" style="fill:#595a5c;fill-rule:nonzero;"/><path d="M611.331,169.556c0.054,2.409 0.931,4.201 2.626,5.376c1.698,1.178 3.804,1.766 6.322,1.766c2.026,0 3.804,-0.438 5.337,-1.313c1.532,-0.875 2.298,-2.244 2.298,-4.107c0,-1.641 -0.983,-2.885 -2.954,-3.735c-1.971,-0.847 -5.393,-1.791 -10.263,-2.831c-1.969,-0.438 -3.708,-0.916 -5.214,-1.438c-1.505,-0.518 -2.887,-1.203 -4.146,-2.053c-1.259,-0.847 -2.257,-1.914 -2.996,-3.2c-0.739,-1.286 -1.109,-2.833 -1.109,-4.639c0,-2.572 0.505,-4.763 1.52,-6.569c1.013,-1.805 2.393,-3.215 4.147,-4.227c1.749,-1.013 3.705,-1.737 5.868,-2.177c2.163,-0.437 4.475,-0.657 6.938,-0.657c2.464,0 4.748,0.234 6.857,0.699c2.106,0.465 4.021,1.218 5.745,2.258c1.725,1.04 3.122,2.435 4.188,4.187c1.067,1.752 1.71,3.886 1.93,6.403l-11.085,0c-0.163,-2.135 -0.943,-3.625 -2.34,-4.474c-1.395,-0.849 -3.27,-1.272 -5.623,-1.272c-1.806,0 -3.34,0.274 -4.597,0.82c-1.261,0.548 -1.889,1.589 -1.889,3.12c0,1.588 0.82,2.738 2.463,3.448c1.641,0.712 4.159,1.424 7.554,2.134c1.53,0.33 2.599,0.576 3.201,0.739c1.97,0.439 3.722,0.946 5.255,1.52c1.532,0.574 2.927,1.301 4.188,2.176c1.257,0.876 2.242,1.998 2.954,3.365c0.712,1.37 1.067,2.984 1.067,4.844c0,2.683 -0.533,4.981 -1.599,6.896c-1.069,1.917 -2.518,3.449 -4.354,4.599c-1.833,1.149 -3.885,1.984 -6.156,2.504c-2.272,0.52 -4.694,0.781 -7.266,0.781c-2.627,0 -5.09,-0.261 -7.389,-0.781c-2.298,-0.52 -4.38,-1.368 -6.24,-2.545c-1.861,-1.178 -3.353,-2.738 -4.475,-4.681c-1.121,-1.942 -1.737,-4.255 -1.847,-6.936l11.084,0Z" style="fill:#595a5c;fill-rule:nonzero;"/><path d="M646.583,140.902l11.658,0l0,42.446l-11.658,0l0,-42.446Zm11.658,-6.568l-11.658,0l0,-9.605l11.658,0l0,9.605Z" style="fill:#595a5c;fill-rule:nonzero;"/><rect x="666.838" y="124.729" width="11.658" height="58.62" style="fill:#595a5c;"/><path d="M714.006,157.568c-0.547,-3.065 -1.547,-5.335 -2.996,-6.814c-1.451,-1.478 -3.545,-2.217 -6.28,-2.217c-1.754,-0 -3.245,0.302 -4.476,0.904c-1.23,0.603 -2.23,1.369 -2.996,2.299c-0.767,0.931 -1.314,1.903 -1.641,2.913c-0.33,1.015 -0.522,1.986 -0.577,2.915l18.966,-0Zm-18.966,7.389c0.165,3.668 1.121,6.378 2.875,8.13c1.75,1.751 4.27,2.626 7.552,2.626c2.244,-0 4.242,-0.561 5.994,-1.683c1.752,-1.121 2.818,-2.394 3.203,-3.818l10.261,-0c-1.586,4.873 -4.063,8.47 -7.43,10.796c-3.366,2.328 -7.512,3.491 -12.437,3.491c-3.285,-0 -6.268,-0.535 -8.949,-1.602c-2.683,-1.067 -4.969,-2.599 -6.856,-4.597c-1.888,-1.998 -3.339,-4.378 -4.351,-7.145c-1.015,-2.762 -1.52,-5.758 -1.52,-8.99c-0,-3.173 0.52,-6.127 1.562,-8.866c1.037,-2.736 2.515,-5.117 4.432,-7.142c1.915,-2.024 4.213,-3.598 6.896,-4.722c2.681,-1.121 5.61,-1.682 8.786,-1.682c3.338,-0 6.307,0.616 8.906,1.847c2.6,1.231 4.763,2.915 6.487,5.05c1.725,2.134 3.038,4.597 3.942,7.388c0.902,2.791 1.353,5.747 1.353,8.866c-0,0.22 -0.027,0.55 -0.082,0.986l-0,1.067l-30.624,-0Z" style="fill:#595a5c;fill-rule:nonzero;"/><path d="M732.873,140.902l11.658,0l0,42.446l-11.658,0l0,-42.446Zm11.659,-6.568l-11.658,0l0,-9.605l11.658,0l0,9.605Z" style="fill:#595a5c;fill-rule:nonzero;"/><path d="M750.945,140.902l11.084,-0l0,7.882l0.165,-0c1.04,-2.627 2.846,-4.789 5.418,-6.486c2.572,-1.696 5.282,-2.545 8.128,-2.545c0.875,-0 1.724,0.137 2.545,0.41l0,10.838c-0.493,-0.11 -1.136,-0.206 -1.929,-0.287c-0.794,-0.083 -1.547,-0.123 -2.257,-0.123c-3.996,-0 -6.911,1.245 -8.744,3.735c-1.835,2.49 -2.752,5.787 -2.752,9.894l0,19.128l-11.658,-0l0,-42.446Z" style="fill:#595a5c;fill-rule:nonzero;"/><path d="M793.77,167.258c0.355,1.587 0.929,3.023 1.725,4.309c0.791,1.286 1.86,2.299 3.2,3.038c1.341,0.739 2.942,1.109 4.804,1.109c1.915,-0 3.543,-0.37 4.884,-1.109c1.342,-0.739 2.409,-1.752 3.202,-3.038c0.794,-1.286 1.368,-2.722 1.725,-4.309c0.355,-1.589 0.534,-3.284 0.534,-5.092c0,-1.806 -0.179,-3.516 -0.534,-5.13c-0.357,-1.614 -0.931,-3.065 -1.725,-4.352c-0.793,-1.285 -1.86,-2.299 -3.202,-3.038c-1.341,-0.739 -2.969,-1.108 -4.884,-1.108c-1.862,-0 -3.463,0.369 -4.804,1.108c-1.34,0.739 -2.409,1.753 -3.2,3.038c-0.796,1.287 -1.37,2.738 -1.725,4.352c-0.357,1.614 -0.534,3.324 -0.534,5.13c0,1.808 0.177,3.503 0.534,5.092m-6.199,-21.389c3.994,-4.076 9.304,-6.116 15.928,-6.116c6.677,-0 12.013,2.04 16.01,6.116c3.994,4.079 5.992,9.511 5.992,16.297c0,6.733 -1.998,12.138 -5.992,16.216c-3.997,4.077 -9.333,6.117 -16.01,6.117c-6.624,-0 -11.934,-2.04 -15.928,-6.117c-3.996,-4.078 -5.994,-9.483 -5.994,-16.216c0,-6.786 1.998,-12.218 5.994,-16.297" style="fill:#595a5c;fill-rule:nonzero;"/><path d="M878.257,156.829c-0.357,-1.587 -0.919,-3.009 -1.683,-4.269c-0.768,-1.257 -1.808,-2.243 -3.121,-2.955c-1.313,-0.711 -2.873,-1.068 -4.679,-1.068c-1.862,-0 -3.449,0.357 -4.762,1.068c-1.313,0.712 -2.38,1.711 -3.203,2.997c-0.82,1.287 -1.409,2.736 -1.764,4.35c-0.357,1.616 -0.535,3.326 -0.535,5.132c-0,1.697 0.207,3.353 0.616,4.967c0.412,1.616 1.04,3.079 1.89,4.393c0.848,1.313 1.914,2.355 3.2,3.119c1.287,0.768 2.804,1.15 4.558,1.15c1.86,-0 3.435,-0.369 4.721,-1.108c1.286,-0.739 2.326,-1.752 3.119,-3.038c0.793,-1.286 1.355,-2.737 1.683,-4.351c0.33,-1.614 0.492,-3.353 0.492,-5.213c-0,-1.861 -0.177,-3.585 -0.532,-5.174m0.697,21.102l-0.165,-0c-1.313,2.244 -3.077,3.9 -5.294,4.966c-2.218,1.067 -4.75,1.602 -7.596,1.602c-3.065,-0 -5.802,-0.616 -8.209,-1.848c-2.409,-1.232 -4.42,-2.915 -6.034,-5.05c-1.616,-2.134 -2.82,-4.556 -3.612,-7.266c-0.795,-2.708 -1.192,-5.568 -1.192,-8.579c-0,-2.9 0.397,-5.664 1.192,-8.293c0.792,-2.626 1.982,-4.979 3.57,-7.06c1.587,-2.079 3.573,-3.707 5.953,-4.885c2.38,-1.176 5.075,-1.765 8.086,-1.765c2.572,-0 4.994,0.548 7.268,1.642c2.269,1.096 4.035,2.656 5.294,4.68l0.165,-0l-0,-21.346l11.659,-0l-0,58.619l-11.085,-0l-0,-5.417Z" style="fill:#595a5c;fill-rule:nonzero;"/><path d="M927.391,157.568c-0.547,-3.065 -1.547,-5.335 -2.996,-6.814c-1.451,-1.478 -3.545,-2.217 -6.28,-2.217c-1.754,-0 -3.245,0.302 -4.476,0.904c-1.23,0.603 -2.23,1.369 -2.996,2.299c-0.767,0.931 -1.314,1.903 -1.641,2.913c-0.33,1.015 -0.522,1.986 -0.577,2.915l18.966,-0Zm-18.966,7.389c0.165,3.668 1.121,6.378 2.875,8.13c1.75,1.751 4.27,2.626 7.552,2.626c2.244,-0 4.242,-0.561 5.994,-1.683c1.752,-1.121 2.818,-2.394 3.203,-3.818l10.261,-0c-1.586,4.873 -4.063,8.47 -7.43,10.796c-3.366,2.328 -7.512,3.491 -12.437,3.491c-3.284,-0 -6.268,-0.535 -8.949,-1.602c-2.683,-1.067 -4.969,-2.599 -6.856,-4.597c-1.888,-1.998 -3.338,-4.378 -4.351,-7.145c-1.015,-2.762 -1.52,-5.758 -1.52,-8.99c0,-3.173 0.52,-6.127 1.562,-8.866c1.037,-2.736 2.515,-5.117 4.432,-7.142c1.915,-2.024 4.213,-3.598 6.896,-4.722c2.681,-1.121 5.61,-1.682 8.786,-1.682c3.338,-0 6.307,0.616 8.906,1.847c2.6,1.231 4.763,2.915 6.487,5.05c1.725,2.134 3.038,4.597 3.942,7.388c0.902,2.791 1.353,5.747 1.353,8.866c0,0.22 -0.027,0.55 -0.082,0.986l0,1.067l-30.624,-0Z" style="fill:#595a5c;fill-rule:nonzero;"/><rect x="469.075" y="206.828" width="12.889" height="58.62" style="fill:#595a5c;"/><path d="M492.063,223.002l11.083,0l0,5.911l0.247,0c1.423,-2.299 3.296,-4.051 5.624,-5.255c2.326,-1.203 4.775,-1.806 7.347,-1.806c3.011,0 5.529,0.411 7.554,1.231c2.025,0.821 3.624,1.984 4.804,3.489c1.175,1.508 1.996,3.314 2.461,5.42c0.466,2.107 0.698,4.556 0.698,7.347l0,26.108l-11.657,0l0,-23.974c0,-3.556 -0.576,-6.184 -1.724,-7.882c-1.15,-1.695 -3.067,-2.545 -5.748,-2.545c-3.175,0 -5.474,0.946 -6.896,2.834c-1.424,1.887 -2.136,4.996 -2.136,9.317l0,22.25l-11.657,0l0,-42.445Z" style="fill:#595a5c;fill-rule:nonzero;"/><path d="M543.293,230.8l-6.98,0l0,-7.798l6.98,0l0,-3.284c0,-3.886 1.217,-7.007 3.652,-9.36c2.436,-2.353 5.952,-3.53 10.551,-3.53c0.875,0 2.134,0.054 3.775,0.165c1.096,0.108 1.89,0.163 2.382,0.163l0,8.702c-1.369,-0.163 -2.791,-0.245 -4.269,-0.245c-1.589,0 -2.723,0.368 -3.408,1.107c-0.684,0.739 -1.027,1.985 -1.027,3.737l0,2.545l8.047,0l0,7.798l-8.047,0l0,34.647l-11.656,0l0,-34.647Z" style="fill:#595a5c;fill-rule:nonzero;"/><path d="M568.086,223.002l11.084,0l-0,7.882l0.165,0c1.04,-2.629 2.846,-4.79 5.418,-6.487c2.572,-1.696 5.282,-2.545 8.128,-2.545c0.875,0 1.724,0.137 2.545,0.411l-0,10.836c-0.493,-0.109 -1.136,-0.205 -1.929,-0.286c-0.794,-0.082 -1.547,-0.124 -2.257,-0.124c-3.996,0 -6.911,1.245 -8.744,3.736c-1.835,2.49 -2.752,5.787 -2.752,9.894l-0,19.128l-11.658,0l-0,-42.445Z" style="fill:#595a5c;fill-rule:nonzero;"/><path d="M626.459,244.676c-0.658,0.547 -1.52,0.958 -2.587,1.232c-1.067,0.273 -2.503,0.547 -4.309,0.82c-1.15,0.165 -2.082,0.303 -2.791,0.412c-2.191,0.438 -3.888,1.108 -5.093,2.01c-1.204,0.904 -1.806,2.313 -1.806,4.228c0,2.027 0.643,3.437 1.93,4.23c1.286,0.793 3.025,1.19 5.213,1.19c2.136,-0 3.86,-0.355 5.173,-1.067c1.314,-0.712 2.27,-1.601 2.873,-2.668c0.602,-1.069 0.986,-2.107 1.151,-3.121c0.163,-1.013 0.246,-1.984 0.246,-2.915l0,-4.351Zm-26.929,-8.621c0.163,-2.626 0.821,-4.856 1.969,-6.691c1.151,-1.833 2.668,-3.311 4.558,-4.432c1.887,-1.122 3.967,-1.917 6.238,-2.383c2.272,-0.463 4.667,-0.697 7.184,-0.697c2.353,-0 4.61,0.165 6.773,0.493c2.163,0.328 4.132,0.931 5.913,1.806c1.777,0.877 3.213,2.121 4.309,3.735c1.094,1.616 1.643,3.626 1.643,6.036l0,22.085c0,2.133 0.124,4.035 0.37,5.706c0.246,1.67 0.616,2.914 1.109,3.735l-11.824,-0c-0.493,-1.533 -0.768,-2.9 -0.82,-4.105c-1.754,1.806 -3.873,3.134 -6.364,3.981c-2.491,0.848 -5.132,1.274 -7.923,1.274c-4.27,-0 -7.746,-1.081 -10.427,-3.244c-2.683,-2.161 -4.023,-5.322 -4.023,-9.483c0,-2.299 0.397,-4.241 1.192,-5.829c0.792,-1.587 1.858,-2.844 3.201,-3.777c1.34,-0.929 2.833,-1.641 4.474,-2.134c1.643,-0.493 3.503,-0.875 5.583,-1.148c1.094,-0.165 2.353,-0.33 3.777,-0.493c3.503,-0.439 6.048,-0.958 7.635,-1.562c1.587,-0.601 2.382,-1.777 2.382,-3.528c0,-2.301 -0.658,-3.831 -1.971,-4.6c-1.313,-0.764 -3.175,-1.148 -5.583,-1.148c-2.298,-0 -4.104,0.507 -5.418,1.518c-1.315,1.015 -2.081,2.641 -2.298,4.885l-11.659,-0Z" style="fill:#595a5c;fill-rule:nonzero;"/><path d="M675.719,239.667c-0.547,-3.065 -1.547,-5.336 -2.996,-6.815c-1.451,-1.476 -3.545,-2.215 -6.28,-2.215c-1.754,0 -3.245,0.301 -4.476,0.902c-1.23,0.603 -2.23,1.37 -2.996,2.299c-0.767,0.931 -1.314,1.904 -1.641,2.914c-0.33,1.015 -0.522,1.986 -0.577,2.915l18.966,0Zm-18.966,7.389c0.165,3.668 1.121,6.378 2.875,8.13c1.75,1.751 4.27,2.626 7.552,2.626c2.244,0 4.242,-0.561 5.994,-1.683c1.752,-1.121 2.818,-2.394 3.203,-3.818l10.261,0c-1.586,4.873 -4.063,8.47 -7.43,10.796c-3.366,2.328 -7.512,3.491 -12.437,3.491c-3.284,0 -6.268,-0.535 -8.949,-1.602c-2.683,-1.067 -4.969,-2.599 -6.856,-4.597c-1.888,-1.998 -3.339,-4.378 -4.351,-7.145c-1.015,-2.762 -1.52,-5.758 -1.52,-8.99c-0,-3.173 0.52,-6.127 1.562,-8.865c1.037,-2.737 2.515,-5.117 4.432,-7.144c1.915,-2.023 4.213,-3.597 6.896,-4.721c2.681,-1.121 5.61,-1.682 8.786,-1.682c3.338,0 6.307,0.616 8.906,1.847c2.6,1.232 4.763,2.915 6.487,5.049c1.725,2.136 3.038,4.597 3.942,7.388c0.902,2.792 1.353,5.748 1.353,8.867c0,0.22 -0.027,0.55 -0.082,0.986l0,1.067l-30.624,0Z" style="fill:#595a5c;fill-rule:nonzero;"/><path d="M703.303,251.655c0.054,2.409 0.931,4.201 2.626,5.376c1.698,1.178 3.804,1.766 6.322,1.766c2.026,0 3.804,-0.438 5.337,-1.313c1.532,-0.875 2.299,-2.244 2.299,-4.107c0,-1.641 -0.984,-2.885 -2.955,-3.735c-1.971,-0.847 -5.393,-1.791 -10.263,-2.831c-1.969,-0.438 -3.708,-0.916 -5.214,-1.438c-1.505,-0.518 -2.887,-1.203 -4.146,-2.053c-1.259,-0.847 -2.257,-1.914 -2.996,-3.2c-0.739,-1.286 -1.109,-2.833 -1.109,-4.639c0,-2.572 0.505,-4.763 1.52,-6.569c1.013,-1.806 2.393,-3.215 4.147,-4.227c1.749,-1.013 3.705,-1.737 5.868,-2.176c2.163,-0.438 4.475,-0.658 6.938,-0.658c2.464,0 4.748,0.234 6.857,0.698c2.106,0.465 4.021,1.219 5.745,2.259c1.725,1.04 3.122,2.436 4.188,4.186c1.067,1.754 1.71,3.887 1.93,6.405l-11.085,0c-0.162,-2.136 -0.943,-3.626 -2.34,-4.476c-1.395,-0.848 -3.27,-1.271 -5.623,-1.271c-1.806,0 -3.34,0.273 -4.597,0.82c-1.261,0.547 -1.889,1.589 -1.889,3.119c0,1.589 0.82,2.739 2.463,3.449c1.641,0.712 4.159,1.424 7.554,2.134c1.53,0.33 2.599,0.576 3.201,0.739c1.97,0.439 3.722,0.946 5.255,1.52c1.532,0.574 2.927,1.301 4.188,2.176c1.257,0.876 2.242,1.998 2.954,3.365c0.712,1.37 1.067,2.984 1.067,4.844c0,2.683 -0.533,4.981 -1.599,6.896c-1.069,1.916 -2.518,3.449 -4.353,4.599c-1.834,1.149 -3.886,1.984 -6.157,2.504c-2.272,0.519 -4.694,0.78 -7.266,0.78c-2.627,0 -5.09,-0.261 -7.389,-0.78c-2.298,-0.52 -4.38,-1.368 -6.24,-2.545c-1.86,-1.178 -3.353,-2.738 -4.474,-4.681c-1.122,-1.942 -1.738,-4.255 -1.848,-6.936l11.084,0Z" style="fill:#595a5c;fill-rule:nonzero;"/><path d="M753.139,223.002l8.537,0l0,7.798l-8.537,0l0,21.018c0,1.971 0.328,3.284 0.985,3.942c0.656,0.655 1.969,0.985 3.94,0.985c1.313,0 2.518,-0.11 3.612,-0.33l0,9.114c-1.641,0.273 -3.912,0.411 -6.812,0.411c-1.971,0 -3.738,-0.138 -5.297,-0.411c-1.56,-0.274 -2.954,-0.779 -4.186,-1.518c-1.232,-0.739 -2.19,-1.779 -2.875,-3.119c-0.685,-1.343 -1.025,-3.026 -1.025,-5.051l0,-25.041l-7.061,0l0,-7.798l7.061,0l0,-12.727l11.658,0l0,12.727Z" style="fill:#595a5c;fill-rule:nonzero;"/><path d="M767.257,223.002l11.084,0l0,7.882l0.165,0c1.04,-2.629 2.846,-4.79 5.418,-6.487c2.572,-1.696 5.282,-2.545 8.128,-2.545c0.875,0 1.724,0.137 2.545,0.411l0,10.836c-0.493,-0.109 -1.136,-0.205 -1.929,-0.286c-0.794,-0.082 -1.547,-0.124 -2.257,-0.124c-3.996,0 -6.911,1.245 -8.744,3.736c-1.835,2.49 -2.752,5.787 -2.752,9.894l0,19.128l-11.658,0l0,-42.445Z" style="fill:#595a5c;fill-rule:nonzero;"/><path d="M839.013,265.447l-11.082,0l0,-5.911l-0.246,0c-1.424,2.299 -3.299,4.051 -5.625,5.253c-2.326,1.205 -4.775,1.808 -7.347,1.808c-3.011,0 -5.531,-0.411 -7.554,-1.231c-2.025,-0.823 -3.626,-1.998 -4.804,-3.531c-1.177,-1.532 -1.998,-3.338 -2.461,-5.42c-0.466,-2.079 -0.7,-4.514 -0.7,-7.305l0,-26.108l11.659,0l0,23.972c0,3.56 0.588,6.186 1.766,7.882c1.175,1.697 3.079,2.545 5.706,2.545c3.173,0 5.472,-0.944 6.896,-2.832c1.424,-1.889 2.136,-4.994 2.136,-9.32l0,-22.247l11.656,0l0,42.445Z" style="fill:#595a5c;fill-rule:nonzero;"/><path d="M862.658,223.002l8.537,0l-0,7.798l-8.537,0l-0,21.018c-0,1.971 0.328,3.284 0.985,3.942c0.656,0.655 1.969,0.985 3.94,0.985c1.313,0 2.518,-0.11 3.612,-0.33l-0,9.114c-1.641,0.273 -3.912,0.411 -6.812,0.411c-1.971,0 -3.738,-0.138 -5.297,-0.411c-1.56,-0.274 -2.954,-0.779 -4.186,-1.518c-1.232,-0.739 -2.19,-1.779 -2.875,-3.119c-0.685,-1.343 -1.025,-3.026 -1.025,-5.051l-0,-25.041l-7.061,0l-0,-7.798l7.061,0l-0,-12.727l11.658,0l-0,12.727Z" style="fill:#595a5c;fill-rule:nonzero;"/><path d="M916.596,265.447l-11.082,0l0,-5.911l-0.246,0c-1.424,2.299 -3.299,4.051 -5.625,5.253c-2.326,1.205 -4.775,1.808 -7.347,1.808c-3.011,0 -5.531,-0.411 -7.554,-1.231c-2.025,-0.823 -3.626,-1.998 -4.804,-3.531c-1.177,-1.532 -1.998,-3.338 -2.461,-5.42c-0.466,-2.079 -0.7,-4.514 -0.7,-7.305l0,-26.108l11.659,0l0,23.972c0,3.56 0.588,6.186 1.766,7.882c1.175,1.697 3.079,2.545 5.706,2.545c3.173,0 5.472,-0.944 6.896,-2.832c1.424,-1.889 2.136,-4.994 2.136,-9.32l0,-22.247l11.656,0l0,42.445Z" style="fill:#595a5c;fill-rule:nonzero;"/><path d="M925.461,223.002l11.084,0l0,7.882l0.165,0c1.04,-2.629 2.846,-4.79 5.418,-6.487c2.572,-1.696 5.282,-2.545 8.128,-2.545c0.875,0 1.724,0.137 2.545,0.411l0,10.836c-0.493,-0.109 -1.136,-0.205 -1.929,-0.286c-0.794,-0.082 -1.547,-0.124 -2.257,-0.124c-3.996,0 -6.911,1.245 -8.744,3.736c-1.835,2.49 -2.752,5.787 -2.752,9.894l0,19.128l-11.658,0l0,-42.445Z" style="fill:#595a5c;fill-rule:nonzero;"/><path d="M983.836,244.676c-0.658,0.547 -1.52,0.958 -2.587,1.232c-1.067,0.273 -2.503,0.547 -4.309,0.82c-1.15,0.165 -2.082,0.303 -2.791,0.412c-2.191,0.438 -3.888,1.108 -5.093,2.01c-1.204,0.904 -1.806,2.313 -1.806,4.228c0,2.027 0.643,3.437 1.93,4.23c1.286,0.793 3.025,1.19 5.213,1.19c2.136,-0 3.86,-0.355 5.173,-1.067c1.314,-0.712 2.27,-1.601 2.873,-2.668c0.602,-1.069 0.986,-2.107 1.151,-3.121c0.163,-1.013 0.246,-1.984 0.246,-2.915l0,-4.351Zm-26.929,-8.621c0.163,-2.626 0.821,-4.856 1.969,-6.691c1.151,-1.833 2.668,-3.311 4.558,-4.432c1.887,-1.122 3.967,-1.917 6.238,-2.383c2.272,-0.463 4.667,-0.697 7.185,-0.697c2.352,-0 4.609,0.165 6.772,0.493c2.163,0.328 4.132,0.931 5.913,1.806c1.777,0.877 3.213,2.121 4.309,3.735c1.094,1.616 1.643,3.626 1.643,6.036l0,22.085c0,2.133 0.124,4.035 0.37,5.706c0.246,1.67 0.616,2.914 1.109,3.735l-11.824,-0c-0.492,-1.533 -0.768,-2.9 -0.82,-4.105c-1.754,1.806 -3.873,3.134 -6.364,3.981c-2.491,0.848 -5.132,1.274 -7.923,1.274c-4.27,-0 -7.746,-1.081 -10.427,-3.244c-2.683,-2.161 -4.023,-5.322 -4.023,-9.483c0,-2.299 0.397,-4.241 1.192,-5.829c0.792,-1.587 1.858,-2.844 3.201,-3.777c1.34,-0.929 2.833,-1.641 4.474,-2.134c1.643,-0.493 3.503,-0.875 5.583,-1.148c1.094,-0.165 2.353,-0.33 3.777,-0.493c3.503,-0.439 6.048,-0.958 7.635,-1.562c1.587,-0.601 2.382,-1.777 2.382,-3.528c0,-2.301 -0.658,-3.831 -1.971,-4.6c-1.313,-0.764 -3.175,-1.148 -5.583,-1.148c-2.298,-0 -4.104,0.507 -5.418,1.518c-1.315,1.015 -2.081,2.641 -2.298,4.885l-11.659,-0Z" style="fill:#595a5c;fill-rule:nonzero;"/><rect x="404.043" y="0" width="6.48" height="305.662" style="fill:#5896c9;"/><rect x="415.707" y="0" width="6.48" height="305.662" style="fill:#349a47;"/><path d="M46.49,265.613l-46.49,-223.939l46.49,0l0,223.939Z" style="fill:#5896c9;fill-rule:nonzero;"/><path d="M357.634,41.621l-46.49,223.992l-0,-223.939l46.49,0l-0,-0.053Z" style="fill:#349a47;fill-rule:nonzero;"/></svg>